Format                           : MPEG-PS
File size                        : 1 024 MiB
Duration                         : 58mn 14s
Overall bit rate                 : 2 458 Kbps

Video
ID                               : 224 (0xE0)
Format                           : MPEG Video
Format version                   : Version 2
Format profile                   : Main@Main
Format settings, BVOP            : Yes
Format settings, Matrix          : Default
Format settings, GOP             : M=3, N=15
Duration                         : 58mn 14s
Bit rate mode                    : Variable
Bit rate                         : 2 150 Kbps
Width                            : 720 pixels
Height                           : 480 pixels
Display aspect ratio             : 4:3
Frame rate                       : 29.970 fps
Standard                         : NTSC
Color space                      : YUV
Chroma subsampling               : 4:2:0
Bit depth                        : 8 bits
Scan type                        : Progressive
Compression mode                 : Lossy
Bits/(Pixel*Frame)               : 0.208
Stream size                      : 910 MiB (89%)

Audio
ID                               : 192 (0xC0)
Format                           : MPEG Audio
Format version                   : Version 1
Format profile                   : Layer 2
Duration                         : 58mn 13s
Bit rate mode                    : Constant
Bit rate                         : 224 Kbps
Channel(s)                       : 2 channels
Sampling rate                    : 48.0 KHz
Compression mode                 : Lossy
Stream size                      : 93.3 MiB (9%)

Menu

Credited cast:
Vikas Anand 	Vikas Anand 	... 	
Judge
Aparajita 	Aparajita 	... 	
Mrs. Gupta
Arjun 	Arjun 	... 	
Arjun Gendaswamy
Rakesh Bedi 	Rakesh Bedi 	... 	
Khabrilal
Pankaj Berry 	Pankaj Berry 		
Bob Christo 	Bob Christo 		
Sudhir Dalvi 	Sudhir Dalvi 	... 	
Prof. Nasrul Hassan
Sonika Gill 	Sonika Gill 		
Harish 	Harish 		
Satyendra Kapoor 	Satyendra Kapoor 	... 	
Dr. Gupta
Mamta Kulkarni 	Mamta Kulkarni 		
Raaj Kumar 	Raaj Kumar 	... 	
Brigadier Suryadev Singh
Sujit Kumar 	Sujit Kumar 	... 	
D.S.P.
Krish Mallik 	Krish Mallik 		
Anjana Mumtaz 	Anjana Mumtaz